G04 #@! TF.FileFunction,Legend,Top*
%FSLAX46Y46*%
G04 Gerber Fmt 4.6, Leading zero omitted, Abs format (unit mm)*
G04 Created by KiCad (PCBNEW 4.0.6) date 05/21/18 13:30:20*
%MOMM*%
%LPD*%
G01*
G04 APERTURE LIST*
%ADD10C,0.100000*%
%ADD11C,0.120000*%
%ADD12C,0.381000*%
%ADD13C,0.127000*%
%ADD14C,0.150000*%
%ADD15C,0.304800*%
%ADD16C,0.114300*%
G04 APERTURE END LIST*
D10*
D11*
X174050000Y-104080000D02*
X168850000Y-104080000D01*
X174050000Y-127000000D02*
X174050000Y-104080000D01*
X168850000Y-129600000D02*
X168850000Y-104080000D01*
X174050000Y-127000000D02*
X171450000Y-127000000D01*
X171450000Y-127000000D02*
X171450000Y-129600000D01*
X171450000Y-129600000D02*
X168850000Y-129600000D01*
X174050000Y-128270000D02*
X174050000Y-129600000D01*
X174050000Y-129600000D02*
X172720000Y-129600000D01*
X241250000Y-110380000D02*
X228650000Y-110380000D01*
X228650000Y-110380000D02*
X228650000Y-125780000D01*
X228650000Y-125780000D02*
X229600000Y-125780000D01*
X229600000Y-125780000D02*
X229300000Y-126280000D01*
X229300000Y-126280000D02*
X231300000Y-126280000D01*
X231300000Y-126280000D02*
X231050000Y-125780000D01*
X231050000Y-125780000D02*
X236450000Y-125780000D01*
X236450000Y-125780000D02*
X236200000Y-126280000D01*
X236200000Y-126280000D02*
X241250000Y-126280000D01*
X241250000Y-126280000D02*
X241250000Y-110380000D01*
D12*
X188528960Y-129420620D02*
X188528960Y-139819380D01*
X188528960Y-139819380D02*
X180731160Y-139819380D01*
X180731160Y-139819380D02*
X179430680Y-137419080D01*
X179430680Y-137419080D02*
X179430680Y-131820920D01*
X179430680Y-131820920D02*
X180731160Y-129420620D01*
X180731160Y-129420620D02*
X188528960Y-129420620D01*
X212658960Y-129420620D02*
X212658960Y-139819380D01*
X212658960Y-139819380D02*
X204861160Y-139819380D01*
X204861160Y-139819380D02*
X203560680Y-137419080D01*
X203560680Y-137419080D02*
X203560680Y-131820920D01*
X203560680Y-131820920D02*
X204861160Y-129420620D01*
X204861160Y-129420620D02*
X212658960Y-129420620D01*
X188528960Y-112910620D02*
X188528960Y-123309380D01*
X188528960Y-123309380D02*
X180731160Y-123309380D01*
X180731160Y-123309380D02*
X179430680Y-120909080D01*
X179430680Y-120909080D02*
X179430680Y-115310920D01*
X179430680Y-115310920D02*
X180731160Y-112910620D01*
X180731160Y-112910620D02*
X188528960Y-112910620D01*
X212658960Y-112910620D02*
X212658960Y-123309380D01*
X212658960Y-123309380D02*
X204861160Y-123309380D01*
X204861160Y-123309380D02*
X203560680Y-120909080D01*
X203560680Y-120909080D02*
X203560680Y-115310920D01*
X203560680Y-115310920D02*
X204861160Y-112910620D01*
X204861160Y-112910620D02*
X212658960Y-112910620D01*
X188528960Y-96400620D02*
X188528960Y-106799380D01*
X188528960Y-106799380D02*
X180731160Y-106799380D01*
X180731160Y-106799380D02*
X179430680Y-104399080D01*
X179430680Y-104399080D02*
X179430680Y-98800920D01*
X179430680Y-98800920D02*
X180731160Y-96400620D01*
X180731160Y-96400620D02*
X188528960Y-96400620D01*
X212658960Y-96400620D02*
X212658960Y-106799380D01*
X212658960Y-106799380D02*
X204861160Y-106799380D01*
X204861160Y-106799380D02*
X203560680Y-104399080D01*
X203560680Y-104399080D02*
X203560680Y-98800920D01*
X203560680Y-98800920D02*
X204861160Y-96400620D01*
X204861160Y-96400620D02*
X212658960Y-96400620D01*
D13*
X194810380Y-141668500D02*
X195516500Y-141668500D01*
X195516500Y-141668500D02*
X195516500Y-140271500D01*
X195516500Y-140271500D02*
X194810380Y-140271500D01*
X193103500Y-141668500D02*
X193809620Y-141668500D01*
X193103500Y-141668500D02*
X193103500Y-140271500D01*
X193103500Y-140271500D02*
X193809620Y-140271500D01*
X217670380Y-141668500D02*
X218376500Y-141668500D01*
X218376500Y-141668500D02*
X218376500Y-140271500D01*
X218376500Y-140271500D02*
X217670380Y-140271500D01*
X215963500Y-141668500D02*
X216669620Y-141668500D01*
X215963500Y-141668500D02*
X215963500Y-140271500D01*
X215963500Y-140271500D02*
X216669620Y-140271500D01*
X221480380Y-141668500D02*
X222186500Y-141668500D01*
X222186500Y-141668500D02*
X222186500Y-140271500D01*
X222186500Y-140271500D02*
X221480380Y-140271500D01*
X219773500Y-141668500D02*
X220479620Y-141668500D01*
X219773500Y-141668500D02*
X219773500Y-140271500D01*
X219773500Y-140271500D02*
X220479620Y-140271500D01*
D12*
X231203500Y-130683000D02*
X231203500Y-137287000D01*
X231203500Y-137287000D02*
X238061500Y-137287000D01*
X238061500Y-137287000D02*
X238061500Y-130683000D01*
X238061500Y-130683000D02*
X231203500Y-130683000D01*
D13*
X193540380Y-125158500D02*
X194246500Y-125158500D01*
X194246500Y-125158500D02*
X194246500Y-123761500D01*
X194246500Y-123761500D02*
X193540380Y-123761500D01*
X191833500Y-125158500D02*
X192539620Y-125158500D01*
X191833500Y-125158500D02*
X191833500Y-123761500D01*
X191833500Y-123761500D02*
X192539620Y-123761500D01*
X217670380Y-125158500D02*
X218376500Y-125158500D01*
X218376500Y-125158500D02*
X218376500Y-123761500D01*
X218376500Y-123761500D02*
X217670380Y-123761500D01*
X215963500Y-125158500D02*
X216669620Y-125158500D01*
X215963500Y-125158500D02*
X215963500Y-123761500D01*
X215963500Y-123761500D02*
X216669620Y-123761500D01*
X221480380Y-125158500D02*
X222186500Y-125158500D01*
X222186500Y-125158500D02*
X222186500Y-123761500D01*
X222186500Y-123761500D02*
X221480380Y-123761500D01*
X219773500Y-125158500D02*
X220479620Y-125158500D01*
X219773500Y-125158500D02*
X219773500Y-123761500D01*
X219773500Y-123761500D02*
X220479620Y-123761500D01*
D12*
X232092500Y-97155000D02*
X232092500Y-103759000D01*
X232092500Y-103759000D02*
X238950500Y-103759000D01*
X238950500Y-103759000D02*
X238950500Y-97155000D01*
X238950500Y-97155000D02*
X232092500Y-97155000D01*
D13*
X193540380Y-108648500D02*
X194246500Y-108648500D01*
X194246500Y-108648500D02*
X194246500Y-107251500D01*
X194246500Y-107251500D02*
X193540380Y-107251500D01*
X191833500Y-108648500D02*
X192539620Y-108648500D01*
X191833500Y-108648500D02*
X191833500Y-107251500D01*
X191833500Y-107251500D02*
X192539620Y-107251500D01*
X217670380Y-108648500D02*
X218376500Y-108648500D01*
X218376500Y-108648500D02*
X218376500Y-107251500D01*
X218376500Y-107251500D02*
X217670380Y-107251500D01*
X215963500Y-108648500D02*
X216669620Y-108648500D01*
X215963500Y-108648500D02*
X215963500Y-107251500D01*
X215963500Y-107251500D02*
X216669620Y-107251500D01*
X221480380Y-108648500D02*
X222186500Y-108648500D01*
X222186500Y-108648500D02*
X222186500Y-107251500D01*
X222186500Y-107251500D02*
X221480380Y-107251500D01*
X219773500Y-108648500D02*
X220479620Y-108648500D01*
X219773500Y-108648500D02*
X219773500Y-107251500D01*
X219773500Y-107251500D02*
X220479620Y-107251500D01*
D11*
X177750000Y-91330000D02*
X165150000Y-91330000D01*
X165150000Y-91330000D02*
X165150000Y-101680000D01*
X165150000Y-101680000D02*
X166100000Y-101680000D01*
X166100000Y-101680000D02*
X165850000Y-102180000D01*
X165850000Y-102180000D02*
X167750000Y-102180000D01*
X167750000Y-102180000D02*
X167800000Y-102180000D01*
X167800000Y-102180000D02*
X167550000Y-101680000D01*
X167550000Y-101680000D02*
X172950000Y-101680000D01*
X172950000Y-101680000D02*
X172650000Y-102180000D01*
X172650000Y-102180000D02*
X177750000Y-102180000D01*
X177750000Y-102180000D02*
X177750000Y-91330000D01*
D14*
X171116667Y-130052381D02*
X171116667Y-130766667D01*
X171069047Y-130909524D01*
X170973809Y-131004762D01*
X170830952Y-131052381D01*
X170735714Y-131052381D01*
X172116667Y-131052381D02*
X171545238Y-131052381D01*
X171830952Y-131052381D02*
X171830952Y-130052381D01*
X171735714Y-130195238D01*
X171640476Y-130290476D01*
X171545238Y-130338095D01*
X241502381Y-118363333D02*
X242216667Y-118363333D01*
X242359524Y-118410953D01*
X242454762Y-118506191D01*
X242502381Y-118649048D01*
X242502381Y-118744286D01*
X241597619Y-117934762D02*
X241550000Y-117887143D01*
X241502381Y-117791905D01*
X241502381Y-117553809D01*
X241550000Y-117458571D01*
X241597619Y-117410952D01*
X241692857Y-117363333D01*
X241788095Y-117363333D01*
X241930952Y-117410952D01*
X242502381Y-117982381D01*
X242502381Y-117363333D01*
D15*
X178418309Y-139663715D02*
X176894309Y-139663715D01*
X178418309Y-138067144D02*
X177692594Y-138575144D01*
X178418309Y-138938001D02*
X176894309Y-138938001D01*
X176894309Y-138357429D01*
X176966880Y-138212287D01*
X177039451Y-138139715D01*
X177184594Y-138067144D01*
X177402309Y-138067144D01*
X177547451Y-138139715D01*
X177620023Y-138212287D01*
X177692594Y-138357429D01*
X177692594Y-138938001D01*
X177620023Y-136906001D02*
X177620023Y-137414001D01*
X178418309Y-137414001D02*
X176894309Y-137414001D01*
X176894309Y-136688287D01*
X178345737Y-136180286D02*
X178418309Y-135962572D01*
X178418309Y-135599715D01*
X178345737Y-135454572D01*
X178273166Y-135382001D01*
X178128023Y-135309429D01*
X177982880Y-135309429D01*
X177837737Y-135382001D01*
X177765166Y-135454572D01*
X177692594Y-135599715D01*
X177620023Y-135890001D01*
X177547451Y-136035143D01*
X177474880Y-136107715D01*
X177329737Y-136180286D01*
X177184594Y-136180286D01*
X177039451Y-136107715D01*
X176966880Y-136035143D01*
X176894309Y-135890001D01*
X176894309Y-135527143D01*
X176966880Y-135309429D01*
X176894309Y-134801429D02*
X176894309Y-133785429D01*
X178418309Y-134438572D01*
X176894309Y-132479143D02*
X176894309Y-133204857D01*
X177620023Y-133277428D01*
X177547451Y-133204857D01*
X177474880Y-133059714D01*
X177474880Y-132696857D01*
X177547451Y-132551714D01*
X177620023Y-132479143D01*
X177765166Y-132406571D01*
X178128023Y-132406571D01*
X178273166Y-132479143D01*
X178345737Y-132551714D01*
X178418309Y-132696857D01*
X178418309Y-133059714D01*
X178345737Y-133204857D01*
X178273166Y-133277428D01*
X176894309Y-131898571D02*
X176894309Y-130955142D01*
X177474880Y-131463142D01*
X177474880Y-131245428D01*
X177547451Y-131100285D01*
X177620023Y-131027714D01*
X177765166Y-130955142D01*
X178128023Y-130955142D01*
X178273166Y-131027714D01*
X178345737Y-131100285D01*
X178418309Y-131245428D01*
X178418309Y-131680856D01*
X178345737Y-131825999D01*
X178273166Y-131898571D01*
X176894309Y-130011713D02*
X176894309Y-129866570D01*
X176966880Y-129721427D01*
X177039451Y-129648856D01*
X177184594Y-129576285D01*
X177474880Y-129503713D01*
X177837737Y-129503713D01*
X178128023Y-129576285D01*
X178273166Y-129648856D01*
X178345737Y-129721427D01*
X178418309Y-129866570D01*
X178418309Y-130011713D01*
X178345737Y-130156856D01*
X178273166Y-130229427D01*
X178128023Y-130301999D01*
X177837737Y-130374570D01*
X177474880Y-130374570D01*
X177184594Y-130301999D01*
X177039451Y-130229427D01*
X176966880Y-130156856D01*
X176894309Y-130011713D01*
X202548309Y-139663715D02*
X201024309Y-139663715D01*
X202548309Y-138067144D02*
X201822594Y-138575144D01*
X202548309Y-138938001D02*
X201024309Y-138938001D01*
X201024309Y-138357429D01*
X201096880Y-138212287D01*
X201169451Y-138139715D01*
X201314594Y-138067144D01*
X201532309Y-138067144D01*
X201677451Y-138139715D01*
X201750023Y-138212287D01*
X201822594Y-138357429D01*
X201822594Y-138938001D01*
X201750023Y-136906001D02*
X201750023Y-137414001D01*
X202548309Y-137414001D02*
X201024309Y-137414001D01*
X201024309Y-136688287D01*
X202475737Y-136180286D02*
X202548309Y-135962572D01*
X202548309Y-135599715D01*
X202475737Y-135454572D01*
X202403166Y-135382001D01*
X202258023Y-135309429D01*
X202112880Y-135309429D01*
X201967737Y-135382001D01*
X201895166Y-135454572D01*
X201822594Y-135599715D01*
X201750023Y-135890001D01*
X201677451Y-136035143D01*
X201604880Y-136107715D01*
X201459737Y-136180286D01*
X201314594Y-136180286D01*
X201169451Y-136107715D01*
X201096880Y-136035143D01*
X201024309Y-135890001D01*
X201024309Y-135527143D01*
X201096880Y-135309429D01*
X201024309Y-134801429D02*
X201024309Y-133785429D01*
X202548309Y-134438572D01*
X201024309Y-132479143D02*
X201024309Y-133204857D01*
X201750023Y-133277428D01*
X201677451Y-133204857D01*
X201604880Y-133059714D01*
X201604880Y-132696857D01*
X201677451Y-132551714D01*
X201750023Y-132479143D01*
X201895166Y-132406571D01*
X202258023Y-132406571D01*
X202403166Y-132479143D01*
X202475737Y-132551714D01*
X202548309Y-132696857D01*
X202548309Y-133059714D01*
X202475737Y-133204857D01*
X202403166Y-133277428D01*
X201024309Y-131898571D02*
X201024309Y-130955142D01*
X201604880Y-131463142D01*
X201604880Y-131245428D01*
X201677451Y-131100285D01*
X201750023Y-131027714D01*
X201895166Y-130955142D01*
X202258023Y-130955142D01*
X202403166Y-131027714D01*
X202475737Y-131100285D01*
X202548309Y-131245428D01*
X202548309Y-131680856D01*
X202475737Y-131825999D01*
X202403166Y-131898571D01*
X201024309Y-130011713D02*
X201024309Y-129866570D01*
X201096880Y-129721427D01*
X201169451Y-129648856D01*
X201314594Y-129576285D01*
X201604880Y-129503713D01*
X201967737Y-129503713D01*
X202258023Y-129576285D01*
X202403166Y-129648856D01*
X202475737Y-129721427D01*
X202548309Y-129866570D01*
X202548309Y-130011713D01*
X202475737Y-130156856D01*
X202403166Y-130229427D01*
X202258023Y-130301999D01*
X201967737Y-130374570D01*
X201604880Y-130374570D01*
X201314594Y-130301999D01*
X201169451Y-130229427D01*
X201096880Y-130156856D01*
X201024309Y-130011713D01*
X178418309Y-123153715D02*
X176894309Y-123153715D01*
X178418309Y-121557144D02*
X177692594Y-122065144D01*
X178418309Y-122428001D02*
X176894309Y-122428001D01*
X176894309Y-121847429D01*
X176966880Y-121702287D01*
X177039451Y-121629715D01*
X177184594Y-121557144D01*
X177402309Y-121557144D01*
X177547451Y-121629715D01*
X177620023Y-121702287D01*
X177692594Y-121847429D01*
X177692594Y-122428001D01*
X177620023Y-120396001D02*
X177620023Y-120904001D01*
X178418309Y-120904001D02*
X176894309Y-120904001D01*
X176894309Y-120178287D01*
X178345737Y-119670286D02*
X178418309Y-119452572D01*
X178418309Y-119089715D01*
X178345737Y-118944572D01*
X178273166Y-118872001D01*
X178128023Y-118799429D01*
X177982880Y-118799429D01*
X177837737Y-118872001D01*
X177765166Y-118944572D01*
X177692594Y-119089715D01*
X177620023Y-119380001D01*
X177547451Y-119525143D01*
X177474880Y-119597715D01*
X177329737Y-119670286D01*
X177184594Y-119670286D01*
X177039451Y-119597715D01*
X176966880Y-119525143D01*
X176894309Y-119380001D01*
X176894309Y-119017143D01*
X176966880Y-118799429D01*
X176894309Y-118291429D02*
X176894309Y-117275429D01*
X178418309Y-117928572D01*
X176894309Y-115969143D02*
X176894309Y-116694857D01*
X177620023Y-116767428D01*
X177547451Y-116694857D01*
X177474880Y-116549714D01*
X177474880Y-116186857D01*
X177547451Y-116041714D01*
X177620023Y-115969143D01*
X177765166Y-115896571D01*
X178128023Y-115896571D01*
X178273166Y-115969143D01*
X178345737Y-116041714D01*
X178418309Y-116186857D01*
X178418309Y-116549714D01*
X178345737Y-116694857D01*
X178273166Y-116767428D01*
X176894309Y-115388571D02*
X176894309Y-114445142D01*
X177474880Y-114953142D01*
X177474880Y-114735428D01*
X177547451Y-114590285D01*
X177620023Y-114517714D01*
X177765166Y-114445142D01*
X178128023Y-114445142D01*
X178273166Y-114517714D01*
X178345737Y-114590285D01*
X178418309Y-114735428D01*
X178418309Y-115170856D01*
X178345737Y-115315999D01*
X178273166Y-115388571D01*
X176894309Y-113501713D02*
X176894309Y-113356570D01*
X176966880Y-113211427D01*
X177039451Y-113138856D01*
X177184594Y-113066285D01*
X177474880Y-112993713D01*
X177837737Y-112993713D01*
X178128023Y-113066285D01*
X178273166Y-113138856D01*
X178345737Y-113211427D01*
X178418309Y-113356570D01*
X178418309Y-113501713D01*
X178345737Y-113646856D01*
X178273166Y-113719427D01*
X178128023Y-113791999D01*
X177837737Y-113864570D01*
X177474880Y-113864570D01*
X177184594Y-113791999D01*
X177039451Y-113719427D01*
X176966880Y-113646856D01*
X176894309Y-113501713D01*
X202548309Y-123153715D02*
X201024309Y-123153715D01*
X202548309Y-121557144D02*
X201822594Y-122065144D01*
X202548309Y-122428001D02*
X201024309Y-122428001D01*
X201024309Y-121847429D01*
X201096880Y-121702287D01*
X201169451Y-121629715D01*
X201314594Y-121557144D01*
X201532309Y-121557144D01*
X201677451Y-121629715D01*
X201750023Y-121702287D01*
X201822594Y-121847429D01*
X201822594Y-122428001D01*
X201750023Y-120396001D02*
X201750023Y-120904001D01*
X202548309Y-120904001D02*
X201024309Y-120904001D01*
X201024309Y-120178287D01*
X202475737Y-119670286D02*
X202548309Y-119452572D01*
X202548309Y-119089715D01*
X202475737Y-118944572D01*
X202403166Y-118872001D01*
X202258023Y-118799429D01*
X202112880Y-118799429D01*
X201967737Y-118872001D01*
X201895166Y-118944572D01*
X201822594Y-119089715D01*
X201750023Y-119380001D01*
X201677451Y-119525143D01*
X201604880Y-119597715D01*
X201459737Y-119670286D01*
X201314594Y-119670286D01*
X201169451Y-119597715D01*
X201096880Y-119525143D01*
X201024309Y-119380001D01*
X201024309Y-119017143D01*
X201096880Y-118799429D01*
X201024309Y-118291429D02*
X201024309Y-117275429D01*
X202548309Y-117928572D01*
X201024309Y-115969143D02*
X201024309Y-116694857D01*
X201750023Y-116767428D01*
X201677451Y-116694857D01*
X201604880Y-116549714D01*
X201604880Y-116186857D01*
X201677451Y-116041714D01*
X201750023Y-115969143D01*
X201895166Y-115896571D01*
X202258023Y-115896571D01*
X202403166Y-115969143D01*
X202475737Y-116041714D01*
X202548309Y-116186857D01*
X202548309Y-116549714D01*
X202475737Y-116694857D01*
X202403166Y-116767428D01*
X201024309Y-115388571D02*
X201024309Y-114445142D01*
X201604880Y-114953142D01*
X201604880Y-114735428D01*
X201677451Y-114590285D01*
X201750023Y-114517714D01*
X201895166Y-114445142D01*
X202258023Y-114445142D01*
X202403166Y-114517714D01*
X202475737Y-114590285D01*
X202548309Y-114735428D01*
X202548309Y-115170856D01*
X202475737Y-115315999D01*
X202403166Y-115388571D01*
X201024309Y-113501713D02*
X201024309Y-113356570D01*
X201096880Y-113211427D01*
X201169451Y-113138856D01*
X201314594Y-113066285D01*
X201604880Y-112993713D01*
X201967737Y-112993713D01*
X202258023Y-113066285D01*
X202403166Y-113138856D01*
X202475737Y-113211427D01*
X202548309Y-113356570D01*
X202548309Y-113501713D01*
X202475737Y-113646856D01*
X202403166Y-113719427D01*
X202258023Y-113791999D01*
X201967737Y-113864570D01*
X201604880Y-113864570D01*
X201314594Y-113791999D01*
X201169451Y-113719427D01*
X201096880Y-113646856D01*
X201024309Y-113501713D01*
X178418309Y-106643715D02*
X176894309Y-106643715D01*
X178418309Y-105047144D02*
X177692594Y-105555144D01*
X178418309Y-105918001D02*
X176894309Y-105918001D01*
X176894309Y-105337429D01*
X176966880Y-105192287D01*
X177039451Y-105119715D01*
X177184594Y-105047144D01*
X177402309Y-105047144D01*
X177547451Y-105119715D01*
X177620023Y-105192287D01*
X177692594Y-105337429D01*
X177692594Y-105918001D01*
X177620023Y-103886001D02*
X177620023Y-104394001D01*
X178418309Y-104394001D02*
X176894309Y-104394001D01*
X176894309Y-103668287D01*
X178345737Y-103160286D02*
X178418309Y-102942572D01*
X178418309Y-102579715D01*
X178345737Y-102434572D01*
X178273166Y-102362001D01*
X178128023Y-102289429D01*
X177982880Y-102289429D01*
X177837737Y-102362001D01*
X177765166Y-102434572D01*
X177692594Y-102579715D01*
X177620023Y-102870001D01*
X177547451Y-103015143D01*
X177474880Y-103087715D01*
X177329737Y-103160286D01*
X177184594Y-103160286D01*
X177039451Y-103087715D01*
X176966880Y-103015143D01*
X176894309Y-102870001D01*
X176894309Y-102507143D01*
X176966880Y-102289429D01*
X176894309Y-101781429D02*
X176894309Y-100765429D01*
X178418309Y-101418572D01*
X176894309Y-99459143D02*
X176894309Y-100184857D01*
X177620023Y-100257428D01*
X177547451Y-100184857D01*
X177474880Y-100039714D01*
X177474880Y-99676857D01*
X177547451Y-99531714D01*
X177620023Y-99459143D01*
X177765166Y-99386571D01*
X178128023Y-99386571D01*
X178273166Y-99459143D01*
X178345737Y-99531714D01*
X178418309Y-99676857D01*
X178418309Y-100039714D01*
X178345737Y-100184857D01*
X178273166Y-100257428D01*
X176894309Y-98878571D02*
X176894309Y-97935142D01*
X177474880Y-98443142D01*
X177474880Y-98225428D01*
X177547451Y-98080285D01*
X177620023Y-98007714D01*
X177765166Y-97935142D01*
X178128023Y-97935142D01*
X178273166Y-98007714D01*
X178345737Y-98080285D01*
X178418309Y-98225428D01*
X178418309Y-98660856D01*
X178345737Y-98805999D01*
X178273166Y-98878571D01*
X176894309Y-96991713D02*
X176894309Y-96846570D01*
X176966880Y-96701427D01*
X177039451Y-96628856D01*
X177184594Y-96556285D01*
X177474880Y-96483713D01*
X177837737Y-96483713D01*
X178128023Y-96556285D01*
X178273166Y-96628856D01*
X178345737Y-96701427D01*
X178418309Y-96846570D01*
X178418309Y-96991713D01*
X178345737Y-97136856D01*
X178273166Y-97209427D01*
X178128023Y-97281999D01*
X177837737Y-97354570D01*
X177474880Y-97354570D01*
X177184594Y-97281999D01*
X177039451Y-97209427D01*
X176966880Y-97136856D01*
X176894309Y-96991713D01*
X202548309Y-106643715D02*
X201024309Y-106643715D01*
X202548309Y-105047144D02*
X201822594Y-105555144D01*
X202548309Y-105918001D02*
X201024309Y-105918001D01*
X201024309Y-105337429D01*
X201096880Y-105192287D01*
X201169451Y-105119715D01*
X201314594Y-105047144D01*
X201532309Y-105047144D01*
X201677451Y-105119715D01*
X201750023Y-105192287D01*
X201822594Y-105337429D01*
X201822594Y-105918001D01*
X201750023Y-103886001D02*
X201750023Y-104394001D01*
X202548309Y-104394001D02*
X201024309Y-104394001D01*
X201024309Y-103668287D01*
X202475737Y-103160286D02*
X202548309Y-102942572D01*
X202548309Y-102579715D01*
X202475737Y-102434572D01*
X202403166Y-102362001D01*
X202258023Y-102289429D01*
X202112880Y-102289429D01*
X201967737Y-102362001D01*
X201895166Y-102434572D01*
X201822594Y-102579715D01*
X201750023Y-102870001D01*
X201677451Y-103015143D01*
X201604880Y-103087715D01*
X201459737Y-103160286D01*
X201314594Y-103160286D01*
X201169451Y-103087715D01*
X201096880Y-103015143D01*
X201024309Y-102870001D01*
X201024309Y-102507143D01*
X201096880Y-102289429D01*
X201024309Y-101781429D02*
X201024309Y-100765429D01*
X202548309Y-101418572D01*
X201024309Y-99459143D02*
X201024309Y-100184857D01*
X201750023Y-100257428D01*
X201677451Y-100184857D01*
X201604880Y-100039714D01*
X201604880Y-99676857D01*
X201677451Y-99531714D01*
X201750023Y-99459143D01*
X201895166Y-99386571D01*
X202258023Y-99386571D01*
X202403166Y-99459143D01*
X202475737Y-99531714D01*
X202548309Y-99676857D01*
X202548309Y-100039714D01*
X202475737Y-100184857D01*
X202403166Y-100257428D01*
X201024309Y-98878571D02*
X201024309Y-97935142D01*
X201604880Y-98443142D01*
X201604880Y-98225428D01*
X201677451Y-98080285D01*
X201750023Y-98007714D01*
X201895166Y-97935142D01*
X202258023Y-97935142D01*
X202403166Y-98007714D01*
X202475737Y-98080285D01*
X202548309Y-98225428D01*
X202548309Y-98660856D01*
X202475737Y-98805999D01*
X202403166Y-98878571D01*
X201024309Y-96991713D02*
X201024309Y-96846570D01*
X201096880Y-96701427D01*
X201169451Y-96628856D01*
X201314594Y-96556285D01*
X201604880Y-96483713D01*
X201967737Y-96483713D01*
X202258023Y-96556285D01*
X202403166Y-96628856D01*
X202475737Y-96701427D01*
X202548309Y-96846570D01*
X202548309Y-96991713D01*
X202475737Y-97136856D01*
X202403166Y-97209427D01*
X202258023Y-97281999D01*
X201967737Y-97354570D01*
X201604880Y-97354570D01*
X201314594Y-97281999D01*
X201169451Y-97209427D01*
X201096880Y-97136856D01*
X201024309Y-96991713D01*
D16*
X192901362Y-141022200D02*
X192663086Y-141174600D01*
X192901362Y-141283457D02*
X192400982Y-141283457D01*
X192400982Y-141109285D01*
X192424810Y-141065743D01*
X192448638Y-141043971D01*
X192496293Y-141022200D01*
X192567776Y-141022200D01*
X192615431Y-141043971D01*
X192639259Y-141065743D01*
X192663086Y-141109285D01*
X192663086Y-141283457D01*
X192901362Y-140586771D02*
X192901362Y-140848028D01*
X192901362Y-140717400D02*
X192400982Y-140717400D01*
X192472465Y-140760943D01*
X192520120Y-140804485D01*
X192543948Y-140848028D01*
X215761362Y-141022200D02*
X215523086Y-141174600D01*
X215761362Y-141283457D02*
X215260982Y-141283457D01*
X215260982Y-141109285D01*
X215284810Y-141065743D01*
X215308638Y-141043971D01*
X215356293Y-141022200D01*
X215427776Y-141022200D01*
X215475431Y-141043971D01*
X215499259Y-141065743D01*
X215523086Y-141109285D01*
X215523086Y-141283457D01*
X215308638Y-140848028D02*
X215284810Y-140826257D01*
X215260982Y-140782714D01*
X215260982Y-140673857D01*
X215284810Y-140630314D01*
X215308638Y-140608543D01*
X215356293Y-140586771D01*
X215403948Y-140586771D01*
X215475431Y-140608543D01*
X215761362Y-140869800D01*
X215761362Y-140586771D01*
X219571362Y-141022200D02*
X219333086Y-141174600D01*
X219571362Y-141283457D02*
X219070982Y-141283457D01*
X219070982Y-141109285D01*
X219094810Y-141065743D01*
X219118638Y-141043971D01*
X219166293Y-141022200D01*
X219237776Y-141022200D01*
X219285431Y-141043971D01*
X219309259Y-141065743D01*
X219333086Y-141109285D01*
X219333086Y-141283457D01*
X219070982Y-140869800D02*
X219070982Y-140586771D01*
X219261603Y-140739171D01*
X219261603Y-140673857D01*
X219285431Y-140630314D01*
X219309259Y-140608543D01*
X219356914Y-140586771D01*
X219476052Y-140586771D01*
X219523707Y-140608543D01*
X219547535Y-140630314D01*
X219571362Y-140673857D01*
X219571362Y-140804485D01*
X219547535Y-140848028D01*
X219523707Y-140869800D01*
D15*
X235321929Y-134874000D02*
X234596214Y-135382000D01*
X235321929Y-135744857D02*
X233797929Y-135744857D01*
X233797929Y-135164285D01*
X233870500Y-135019143D01*
X233943071Y-134946571D01*
X234088214Y-134874000D01*
X234305929Y-134874000D01*
X234451071Y-134946571D01*
X234523643Y-135019143D01*
X234596214Y-135164285D01*
X234596214Y-135744857D01*
X234305929Y-133567714D02*
X235321929Y-133567714D01*
X233725357Y-133930571D02*
X234813929Y-134293428D01*
X234813929Y-133350000D01*
D16*
X191631362Y-124512200D02*
X191393086Y-124664600D01*
X191631362Y-124773457D02*
X191130982Y-124773457D01*
X191130982Y-124599285D01*
X191154810Y-124555743D01*
X191178638Y-124533971D01*
X191226293Y-124512200D01*
X191297776Y-124512200D01*
X191345431Y-124533971D01*
X191369259Y-124555743D01*
X191393086Y-124599285D01*
X191393086Y-124773457D01*
X191130982Y-124098543D02*
X191130982Y-124316257D01*
X191369259Y-124338028D01*
X191345431Y-124316257D01*
X191321603Y-124272714D01*
X191321603Y-124163857D01*
X191345431Y-124120314D01*
X191369259Y-124098543D01*
X191416914Y-124076771D01*
X191536052Y-124076771D01*
X191583707Y-124098543D01*
X191607535Y-124120314D01*
X191631362Y-124163857D01*
X191631362Y-124272714D01*
X191607535Y-124316257D01*
X191583707Y-124338028D01*
X215761362Y-124512200D02*
X215523086Y-124664600D01*
X215761362Y-124773457D02*
X215260982Y-124773457D01*
X215260982Y-124599285D01*
X215284810Y-124555743D01*
X215308638Y-124533971D01*
X215356293Y-124512200D01*
X215427776Y-124512200D01*
X215475431Y-124533971D01*
X215499259Y-124555743D01*
X215523086Y-124599285D01*
X215523086Y-124773457D01*
X215260982Y-124120314D02*
X215260982Y-124207400D01*
X215284810Y-124250943D01*
X215308638Y-124272714D01*
X215380120Y-124316257D01*
X215475431Y-124338028D01*
X215666052Y-124338028D01*
X215713707Y-124316257D01*
X215737535Y-124294485D01*
X215761362Y-124250943D01*
X215761362Y-124163857D01*
X215737535Y-124120314D01*
X215713707Y-124098543D01*
X215666052Y-124076771D01*
X215546914Y-124076771D01*
X215499259Y-124098543D01*
X215475431Y-124120314D01*
X215451603Y-124163857D01*
X215451603Y-124250943D01*
X215475431Y-124294485D01*
X215499259Y-124316257D01*
X215546914Y-124338028D01*
X219571362Y-124512200D02*
X219333086Y-124664600D01*
X219571362Y-124773457D02*
X219070982Y-124773457D01*
X219070982Y-124599285D01*
X219094810Y-124555743D01*
X219118638Y-124533971D01*
X219166293Y-124512200D01*
X219237776Y-124512200D01*
X219285431Y-124533971D01*
X219309259Y-124555743D01*
X219333086Y-124599285D01*
X219333086Y-124773457D01*
X219070982Y-124359800D02*
X219070982Y-124055000D01*
X219571362Y-124250943D01*
D15*
X236210929Y-101346000D02*
X235485214Y-101854000D01*
X236210929Y-102216857D02*
X234686929Y-102216857D01*
X234686929Y-101636285D01*
X234759500Y-101491143D01*
X234832071Y-101418571D01*
X234977214Y-101346000D01*
X235194929Y-101346000D01*
X235340071Y-101418571D01*
X235412643Y-101491143D01*
X235485214Y-101636285D01*
X235485214Y-102216857D01*
X235340071Y-100475143D02*
X235267500Y-100620285D01*
X235194929Y-100692857D01*
X235049786Y-100765428D01*
X234977214Y-100765428D01*
X234832071Y-100692857D01*
X234759500Y-100620285D01*
X234686929Y-100475143D01*
X234686929Y-100184857D01*
X234759500Y-100039714D01*
X234832071Y-99967143D01*
X234977214Y-99894571D01*
X235049786Y-99894571D01*
X235194929Y-99967143D01*
X235267500Y-100039714D01*
X235340071Y-100184857D01*
X235340071Y-100475143D01*
X235412643Y-100620285D01*
X235485214Y-100692857D01*
X235630357Y-100765428D01*
X235920643Y-100765428D01*
X236065786Y-100692857D01*
X236138357Y-100620285D01*
X236210929Y-100475143D01*
X236210929Y-100184857D01*
X236138357Y-100039714D01*
X236065786Y-99967143D01*
X235920643Y-99894571D01*
X235630357Y-99894571D01*
X235485214Y-99967143D01*
X235412643Y-100039714D01*
X235340071Y-100184857D01*
D16*
X191631362Y-108002200D02*
X191393086Y-108154600D01*
X191631362Y-108263457D02*
X191130982Y-108263457D01*
X191130982Y-108089285D01*
X191154810Y-108045743D01*
X191178638Y-108023971D01*
X191226293Y-108002200D01*
X191297776Y-108002200D01*
X191345431Y-108023971D01*
X191369259Y-108045743D01*
X191393086Y-108089285D01*
X191393086Y-108263457D01*
X191631362Y-107784485D02*
X191631362Y-107697400D01*
X191607535Y-107653857D01*
X191583707Y-107632085D01*
X191512224Y-107588543D01*
X191416914Y-107566771D01*
X191226293Y-107566771D01*
X191178638Y-107588543D01*
X191154810Y-107610314D01*
X191130982Y-107653857D01*
X191130982Y-107740943D01*
X191154810Y-107784485D01*
X191178638Y-107806257D01*
X191226293Y-107828028D01*
X191345431Y-107828028D01*
X191393086Y-107806257D01*
X191416914Y-107784485D01*
X191440741Y-107740943D01*
X191440741Y-107653857D01*
X191416914Y-107610314D01*
X191393086Y-107588543D01*
X191345431Y-107566771D01*
X215761362Y-108219915D02*
X215523086Y-108372315D01*
X215761362Y-108481172D02*
X215260982Y-108481172D01*
X215260982Y-108307000D01*
X215284810Y-108263458D01*
X215308638Y-108241686D01*
X215356293Y-108219915D01*
X215427776Y-108219915D01*
X215475431Y-108241686D01*
X215499259Y-108263458D01*
X215523086Y-108307000D01*
X215523086Y-108481172D01*
X215761362Y-107784486D02*
X215761362Y-108045743D01*
X215761362Y-107915115D02*
X215260982Y-107915115D01*
X215332465Y-107958658D01*
X215380120Y-108002200D01*
X215403948Y-108045743D01*
X215260982Y-107501457D02*
X215260982Y-107457914D01*
X215284810Y-107414371D01*
X215308638Y-107392600D01*
X215356293Y-107370829D01*
X215451603Y-107349057D01*
X215570741Y-107349057D01*
X215666052Y-107370829D01*
X215713707Y-107392600D01*
X215737535Y-107414371D01*
X215761362Y-107457914D01*
X215761362Y-107501457D01*
X215737535Y-107545000D01*
X215713707Y-107566771D01*
X215666052Y-107588543D01*
X215570741Y-107610314D01*
X215451603Y-107610314D01*
X215356293Y-107588543D01*
X215308638Y-107566771D01*
X215284810Y-107545000D01*
X215260982Y-107501457D01*
X219571362Y-108219915D02*
X219333086Y-108372315D01*
X219571362Y-108481172D02*
X219070982Y-108481172D01*
X219070982Y-108307000D01*
X219094810Y-108263458D01*
X219118638Y-108241686D01*
X219166293Y-108219915D01*
X219237776Y-108219915D01*
X219285431Y-108241686D01*
X219309259Y-108263458D01*
X219333086Y-108307000D01*
X219333086Y-108481172D01*
X219571362Y-107784486D02*
X219571362Y-108045743D01*
X219571362Y-107915115D02*
X219070982Y-107915115D01*
X219142465Y-107958658D01*
X219190120Y-108002200D01*
X219213948Y-108045743D01*
X219571362Y-107349057D02*
X219571362Y-107610314D01*
X219571362Y-107479686D02*
X219070982Y-107479686D01*
X219142465Y-107523229D01*
X219190120Y-107566771D01*
X219213948Y-107610314D01*
D14*
X177892381Y-92393333D02*
X178606667Y-92393333D01*
X178749524Y-92440953D01*
X178844762Y-92536191D01*
X178892381Y-92679048D01*
X178892381Y-92774286D01*
X178225714Y-91488571D02*
X178892381Y-91488571D01*
X177844762Y-91726667D02*
X178559048Y-91964762D01*
X178559048Y-91345714D01*
M02*
