M48
;DRILL file {KiCad 4.0.6} date 05/21/18 13:30:56
;FORMAT={-:-/ absolute / metric / decimal}
FMAT,2
METRIC,TZ
T1C0.760
T2C1.000
T3C1.320
%
G90
G05
M71
T1
X188.563Y-128.048
X188.849Y-129.794
X189.611Y-116.84
X190.373Y-118.491
X190.5Y-104.14
X190.5Y-130.429
X190.95Y-113.411
X191.135Y-140.97
X196.215Y-125.603
X214.503Y-140.081
X214.884Y-130.556
X215.011Y-102.743
X215.138Y-123.063
X218.062Y-114.3
X218.062Y-115.57
X218.062Y-116.84
X218.062Y-119.38
X218.062Y-120.508
X218.062Y-122.232
X222.758Y-131.064
X223.52Y-122.936
X237.871Y-139.7
X237.871Y-140.922
X237.871Y-142.574
X238.76Y-105.41
X238.76Y-107.394
X240.79Y-109.424
X240.79Y-129.54
X240.79Y-132.209
X241.3Y-100.33
X241.3Y-102.87
T2
X170.18Y-105.41
X170.18Y-107.95
X170.18Y-110.49
X170.18Y-113.03
X170.18Y-115.57
X170.18Y-118.11
X170.18Y-120.65
X170.18Y-123.19
X170.18Y-125.73
X170.18Y-128.27
X172.72Y-105.41
X172.72Y-107.95
X172.72Y-110.49
X172.72Y-113.03
X172.72Y-115.57
X172.72Y-118.11
X172.72Y-120.65
X172.72Y-123.19
X172.72Y-125.73
X172.72Y-128.27
T3
X170.18Y-138.51
X170.18Y-143.51
X171.45Y-93.98
X171.45Y-98.98
X234.95Y-113.03
X234.95Y-118.03
X234.95Y-123.03
T0
M30
