G04 #@! TF.FileFunction,Soldermask,Top*
%FSLAX46Y46*%
G04 Gerber Fmt 4.6, Leading zero omitted, Abs format (unit mm)*
G04 Created by KiCad (PCBNEW 4.0.6) date 05/21/18 13:30:20*
%MOMM*%
%LPD*%
G01*
G04 APERTURE LIST*
%ADD10C,0.100000*%
%ADD11R,2.100000X2.100000*%
%ADD12O,2.100000X2.100000*%
%ADD13R,4.360000X2.380000*%
%ADD14O,4.360000X2.380000*%
%ADD15R,8.550860X11.200080*%
%ADD16R,3.600400X1.299160*%
%ADD17R,1.035000X1.543000*%
%ADD18R,2.838400X5.988000*%
%ADD19R,2.838400X1.289000*%
G04 APERTURE END LIST*
D10*
D11*
X172720000Y-128270000D03*
D12*
X170180000Y-128270000D03*
X172720000Y-125730000D03*
X170180000Y-125730000D03*
X172720000Y-123190000D03*
X170180000Y-123190000D03*
X172720000Y-120650000D03*
X170180000Y-120650000D03*
X172720000Y-118110000D03*
X170180000Y-118110000D03*
X172720000Y-115570000D03*
X170180000Y-115570000D03*
X172720000Y-113030000D03*
X170180000Y-113030000D03*
X172720000Y-110490000D03*
X170180000Y-110490000D03*
X172720000Y-107950000D03*
X170180000Y-107950000D03*
X172720000Y-105410000D03*
X170180000Y-105410000D03*
D13*
X234950000Y-113030000D03*
D14*
X234950000Y-118030000D03*
X234950000Y-123030000D03*
D15*
X183329580Y-134620000D03*
D16*
X193931540Y-138430000D03*
X193931540Y-137160000D03*
X193931540Y-135890000D03*
X193931540Y-133350000D03*
X193931540Y-132080000D03*
X193931540Y-130810000D03*
D15*
X207459580Y-134620000D03*
D16*
X218061540Y-138430000D03*
X218061540Y-137160000D03*
X218061540Y-135890000D03*
X218061540Y-133350000D03*
X218061540Y-132080000D03*
X218061540Y-130810000D03*
D15*
X183329580Y-118110000D03*
D16*
X193931540Y-121920000D03*
X193931540Y-120650000D03*
X193931540Y-119380000D03*
X193931540Y-116840000D03*
X193931540Y-115570000D03*
X193931540Y-114300000D03*
D15*
X207459580Y-118110000D03*
D16*
X218061540Y-121920000D03*
X218061540Y-120650000D03*
X218061540Y-119380000D03*
X218061540Y-116840000D03*
X218061540Y-115570000D03*
X218061540Y-114300000D03*
D15*
X183329580Y-101600000D03*
D16*
X193931540Y-105410000D03*
X193931540Y-104140000D03*
X193931540Y-102870000D03*
X193931540Y-100330000D03*
X193931540Y-99060000D03*
X193931540Y-97790000D03*
D15*
X207459580Y-101600000D03*
D16*
X218061540Y-105410000D03*
X218061540Y-104140000D03*
X218061540Y-102870000D03*
X218061540Y-100330000D03*
X218061540Y-99060000D03*
X218061540Y-97790000D03*
D17*
X195072000Y-140970000D03*
X193548000Y-140970000D03*
X217932000Y-140970000D03*
X216408000Y-140970000D03*
X221742000Y-140970000D03*
X220218000Y-140970000D03*
D18*
X231394000Y-135128000D03*
X237871000Y-135128000D03*
D19*
X231394000Y-131000500D03*
X237871000Y-131000500D03*
D17*
X193802000Y-124460000D03*
X192278000Y-124460000D03*
X217932000Y-124460000D03*
X216408000Y-124460000D03*
X221742000Y-124460000D03*
X220218000Y-124460000D03*
D18*
X232283000Y-101600000D03*
X238760000Y-101600000D03*
D19*
X232283000Y-97472500D03*
X238760000Y-97472500D03*
D17*
X193802000Y-107950000D03*
X192278000Y-107950000D03*
X217932000Y-107950000D03*
X216408000Y-107950000D03*
X221742000Y-107950000D03*
X220218000Y-107950000D03*
D13*
X170180000Y-143510000D03*
D14*
X170180000Y-138510000D03*
D13*
X171450000Y-93980000D03*
D14*
X171450000Y-98980000D03*
M02*
