G04 #@! TF.FileFunction,Copper,L2,Bot,Signal*
%FSLAX46Y46*%
G04 Gerber Fmt 4.6, Leading zero omitted, Abs format (unit mm)*
G04 Created by KiCad (PCBNEW 4.0.6) date 05/21/18 13:30:20*
%MOMM*%
%LPD*%
G01*
G04 APERTURE LIST*
%ADD10C,0.100000*%
%ADD11R,1.700000X1.700000*%
%ADD12O,1.700000X1.700000*%
%ADD13R,3.960000X1.980000*%
%ADD14O,3.960000X1.980000*%
%ADD15C,1.524000*%
%ADD16C,0.500000*%
%ADD17C,0.250000*%
%ADD18C,3.000000*%
%ADD19C,0.254000*%
G04 APERTURE END LIST*
D10*
D11*
X172720000Y-128270000D03*
D12*
X170180000Y-128270000D03*
X172720000Y-125730000D03*
X170180000Y-125730000D03*
X172720000Y-123190000D03*
X170180000Y-123190000D03*
X172720000Y-120650000D03*
X170180000Y-120650000D03*
X172720000Y-118110000D03*
X170180000Y-118110000D03*
X172720000Y-115570000D03*
X170180000Y-115570000D03*
X172720000Y-113030000D03*
X170180000Y-113030000D03*
X172720000Y-110490000D03*
X170180000Y-110490000D03*
X172720000Y-107950000D03*
X170180000Y-107950000D03*
X172720000Y-105410000D03*
X170180000Y-105410000D03*
D13*
X234950000Y-113030000D03*
D14*
X234950000Y-118030000D03*
X234950000Y-123030000D03*
D13*
X170180000Y-143510000D03*
D14*
X170180000Y-138510000D03*
D13*
X171450000Y-93980000D03*
D14*
X171450000Y-98980000D03*
D15*
X191135000Y-140970000D03*
X214503000Y-140081000D03*
X188563486Y-128047514D03*
X188849000Y-129794000D03*
X196215000Y-125603000D03*
X215138000Y-123063000D03*
X190373000Y-118491000D03*
X189611000Y-116840000D03*
X190500000Y-130429000D03*
X214884000Y-130556000D03*
X222758000Y-131064000D03*
X223520000Y-122936000D03*
X190950010Y-113411000D03*
X190500000Y-104140000D03*
X241300000Y-102870000D03*
X241300000Y-100330000D03*
X240790201Y-129540000D03*
X240790201Y-132208799D03*
X238760000Y-105410000D03*
X240790201Y-109424201D03*
X237871000Y-139700000D03*
X237871000Y-140922000D03*
X237871000Y-142574497D03*
X238760000Y-107394000D03*
X218061540Y-114300000D03*
X218061540Y-116840000D03*
X218061540Y-119380000D03*
X218061540Y-120508418D03*
X218061540Y-115570000D03*
X218061540Y-122232421D03*
X215011000Y-102743000D03*
D16*
X191135000Y-140970000D02*
X184070000Y-140970000D01*
X184070000Y-140970000D02*
X172720000Y-129620000D01*
X172720000Y-129620000D02*
X172720000Y-128270000D01*
X213741001Y-140842999D02*
X214503000Y-140081000D01*
X212401999Y-142182001D02*
X213741001Y-140842999D01*
X170180000Y-128270000D02*
X184092001Y-142182001D01*
X184092001Y-142182001D02*
X212401999Y-142182001D01*
D17*
X172720000Y-125730000D02*
X173922081Y-125730000D01*
X173922081Y-125730000D02*
X174303081Y-126111000D01*
X174303081Y-126111000D02*
X174879000Y-126111000D01*
D16*
X175321990Y-126553990D02*
X174879000Y-126111000D01*
X188563486Y-128047514D02*
X187069962Y-126553990D01*
X187069962Y-126553990D02*
X175321990Y-126553990D01*
D17*
X170180000Y-125730000D02*
X171355001Y-126905001D01*
X171355001Y-126905001D02*
X174149001Y-126905001D01*
X174149001Y-126905001D02*
X174498000Y-127254000D01*
D16*
X174498000Y-127537998D02*
X174498000Y-127254000D01*
X188849000Y-129794000D02*
X176754002Y-129794000D01*
X176754002Y-129794000D02*
X174498000Y-127537998D01*
X198755000Y-123063000D02*
X196215000Y-125603000D01*
X215138000Y-123063000D02*
X198755000Y-123063000D01*
X172720000Y-123190000D02*
X185674000Y-123190000D01*
X185674000Y-123190000D02*
X190373000Y-118491000D01*
D17*
X170180000Y-123190000D02*
X171355001Y-122014999D01*
X171355001Y-122014999D02*
X173768001Y-122014999D01*
X173768001Y-122014999D02*
X174244000Y-121539000D01*
D16*
X176149000Y-121539000D02*
X174244000Y-121539000D01*
X180848000Y-116840000D02*
X176149000Y-121539000D01*
X189611000Y-116840000D02*
X180848000Y-116840000D01*
X190500000Y-130429000D02*
X191585002Y-129343998D01*
X191585002Y-129343998D02*
X191585002Y-116639238D01*
X173569999Y-111339999D02*
X172720000Y-110490000D01*
X191585002Y-116639238D02*
X190573762Y-115627998D01*
X190573762Y-115627998D02*
X177857998Y-115627998D01*
X177857998Y-115627998D02*
X173569999Y-111339999D01*
X180237988Y-114927987D02*
X174625000Y-109314999D01*
X192285013Y-116349284D02*
X190863716Y-114927987D01*
X190863716Y-114927987D02*
X180237988Y-114927987D01*
X192285013Y-126880013D02*
X192285013Y-116349284D01*
X195961000Y-130556000D02*
X192285013Y-126880013D01*
X214884000Y-130556000D02*
X195961000Y-130556000D01*
D17*
X171355001Y-109314999D02*
X174625000Y-109314999D01*
X174625000Y-109314999D02*
X174719999Y-109314999D01*
X170180000Y-110490000D02*
X171355001Y-109314999D01*
D16*
X222758000Y-124775630D02*
X222758000Y-131064000D01*
X223520000Y-122936000D02*
X223520000Y-124013630D01*
X223520000Y-124013630D02*
X222758000Y-124775630D01*
X172720000Y-107950000D02*
X185489010Y-107950000D01*
X185489010Y-107950000D02*
X190188011Y-112649001D01*
X190188011Y-112649001D02*
X190950010Y-113411000D01*
X190500000Y-104140000D02*
X173990000Y-104140000D01*
X173990000Y-104140000D02*
X172720000Y-105410000D01*
X208341340Y-106680000D02*
X174244000Y-106680000D01*
D17*
X170180000Y-107950000D02*
X171450000Y-106680000D01*
X171450000Y-106680000D02*
X174244000Y-106680000D01*
D16*
X174244000Y-106680000D02*
X173990000Y-106680000D01*
X218061540Y-114300000D02*
X215961340Y-114300000D01*
X215961340Y-114300000D02*
X208341340Y-106680000D01*
D18*
X218061540Y-114300000D02*
X224967540Y-107394000D01*
X224967540Y-107394000D02*
X238760000Y-107394000D01*
X218061540Y-114300000D02*
X218061540Y-118588659D01*
X218061540Y-118588659D02*
X218061540Y-119770420D01*
D16*
X215011000Y-102743000D02*
X172847000Y-102743000D01*
X172847000Y-102743000D02*
X170180000Y-105410000D01*
D19*
G36*
X182122287Y-92150719D02*
X181479929Y-92579929D01*
X181050719Y-93222287D01*
X180900000Y-93980000D01*
X181050719Y-94737713D01*
X181479929Y-95380071D01*
X182122287Y-95809281D01*
X182880000Y-95960000D01*
X183637713Y-95809281D01*
X184280071Y-95380071D01*
X184709281Y-94737713D01*
X184860000Y-93980000D01*
X184709281Y-93222287D01*
X184280071Y-92579929D01*
X183637713Y-92150719D01*
X183634098Y-92150000D01*
X240545902Y-92150000D01*
X240542287Y-92150719D01*
X239899929Y-92579929D01*
X239470719Y-93222287D01*
X239320000Y-93980000D01*
X239470719Y-94737713D01*
X239899929Y-95380071D01*
X240542287Y-95809281D01*
X241300000Y-95960000D01*
X242057713Y-95809281D01*
X242700071Y-95380071D01*
X243129281Y-94737713D01*
X243130000Y-94734098D01*
X243130000Y-146565902D01*
X243129281Y-146562287D01*
X242700071Y-145919929D01*
X242057713Y-145490719D01*
X241300000Y-145340000D01*
X240542287Y-145490719D01*
X239899929Y-145919929D01*
X239470719Y-146562287D01*
X239320000Y-147320000D01*
X239470719Y-148077713D01*
X239899929Y-148720071D01*
X240542287Y-149149281D01*
X240545902Y-149150000D01*
X183634098Y-149150000D01*
X183637713Y-149149281D01*
X184280071Y-148720071D01*
X184709281Y-148077713D01*
X184860000Y-147320000D01*
X184709281Y-146562287D01*
X184280071Y-145919929D01*
X183637713Y-145490719D01*
X182880000Y-145340000D01*
X182122287Y-145490719D01*
X181479929Y-145919929D01*
X181050719Y-146562287D01*
X180900000Y-147320000D01*
X181050719Y-148077713D01*
X181479929Y-148720071D01*
X182122287Y-149149281D01*
X182125902Y-149150000D01*
X165810000Y-149150000D01*
X165810000Y-144163750D01*
X167565000Y-144163750D01*
X167565000Y-144626309D01*
X167661673Y-144859698D01*
X167840301Y-145038327D01*
X168073690Y-145135000D01*
X169031250Y-145135000D01*
X169190000Y-144976250D01*
X169190000Y-144005000D01*
X171170000Y-144005000D01*
X171170000Y-144976250D01*
X171328750Y-145135000D01*
X172286310Y-145135000D01*
X172519699Y-145038327D01*
X172698327Y-144859698D01*
X172795000Y-144626309D01*
X172795000Y-144163750D01*
X172636250Y-144005000D01*
X171170000Y-144005000D01*
X169190000Y-144005000D01*
X167723750Y-144005000D01*
X167565000Y-144163750D01*
X165810000Y-144163750D01*
X165810000Y-142393691D01*
X167565000Y-142393691D01*
X167565000Y-142856250D01*
X167723750Y-143015000D01*
X169190000Y-143015000D01*
X169190000Y-142043750D01*
X171170000Y-142043750D01*
X171170000Y-143015000D01*
X172636250Y-143015000D01*
X172795000Y-142856250D01*
X172795000Y-142393691D01*
X172698327Y-142160302D01*
X172519699Y-141981673D01*
X172286310Y-141885000D01*
X171328750Y-141885000D01*
X171170000Y-142043750D01*
X169190000Y-142043750D01*
X169031250Y-141885000D01*
X168073690Y-141885000D01*
X167840301Y-141981673D01*
X167661673Y-142160302D01*
X167565000Y-142393691D01*
X165810000Y-142393691D01*
X165810000Y-138510000D01*
X167513769Y-138510000D01*
X167637465Y-139131861D01*
X167989720Y-139659049D01*
X168516908Y-140011304D01*
X169138769Y-140135000D01*
X171221231Y-140135000D01*
X171843092Y-140011304D01*
X172370280Y-139659049D01*
X172722535Y-139131861D01*
X172846231Y-138510000D01*
X172722535Y-137888139D01*
X172370280Y-137360951D01*
X171843092Y-137008696D01*
X171221231Y-136885000D01*
X169138769Y-136885000D01*
X168516908Y-137008696D01*
X167989720Y-137360951D01*
X167637465Y-137888139D01*
X167513769Y-138510000D01*
X165810000Y-138510000D01*
X165810000Y-106465000D01*
X168552998Y-106465000D01*
X168552998Y-107100000D01*
X168979840Y-107100000D01*
X168841119Y-107307644D01*
X168923690Y-107525000D01*
X169755000Y-107525000D01*
X169755000Y-107100000D01*
X170605000Y-107100000D01*
X170605000Y-107525000D01*
X171030000Y-107525000D01*
X171030000Y-108375000D01*
X170605000Y-108375000D01*
X170605000Y-108800000D01*
X169755000Y-108800000D01*
X169755000Y-108375000D01*
X168923690Y-108375000D01*
X168841119Y-108592356D01*
X168979840Y-108800000D01*
X168552998Y-108800000D01*
X168552998Y-109435000D01*
X169108255Y-109435000D01*
X169100853Y-109439946D01*
X168778946Y-109921715D01*
X168665907Y-110490000D01*
X168778946Y-111058285D01*
X169100853Y-111540054D01*
X169430026Y-111760000D01*
X169100853Y-111979946D01*
X168778946Y-112461715D01*
X168665907Y-113030000D01*
X168778946Y-113598285D01*
X169100853Y-114080054D01*
X169430026Y-114300000D01*
X169100853Y-114519946D01*
X168778946Y-115001715D01*
X168665907Y-115570000D01*
X168778946Y-116138285D01*
X169100853Y-116620054D01*
X169430026Y-116840000D01*
X169100853Y-117059946D01*
X168778946Y-117541715D01*
X168665907Y-118110000D01*
X168778946Y-118678285D01*
X169100853Y-119160054D01*
X169430026Y-119380000D01*
X169100853Y-119599946D01*
X168778946Y-120081715D01*
X168665907Y-120650000D01*
X168778946Y-121218285D01*
X169100853Y-121700054D01*
X169430026Y-121920000D01*
X169100853Y-122139946D01*
X168778946Y-122621715D01*
X168665907Y-123190000D01*
X168778946Y-123758285D01*
X169100853Y-124240054D01*
X169430026Y-124460000D01*
X169100853Y-124679946D01*
X168778946Y-125161715D01*
X168665907Y-125730000D01*
X168778946Y-126298285D01*
X169100853Y-126780054D01*
X169430026Y-127000000D01*
X169100853Y-127219946D01*
X168778946Y-127701715D01*
X168665907Y-128270000D01*
X168778946Y-128838285D01*
X169100853Y-129320054D01*
X169582622Y-129641961D01*
X170150907Y-129755000D01*
X170209093Y-129755000D01*
X170379520Y-129721100D01*
X183466209Y-142807788D01*
X183466211Y-142807791D01*
X183753326Y-142999634D01*
X184092001Y-143067001D01*
X212401994Y-143067001D01*
X212401999Y-143067002D01*
X212684483Y-143010811D01*
X212740674Y-142999634D01*
X213027789Y-142807791D01*
X213027790Y-142807790D01*
X214357705Y-141477874D01*
X214779661Y-141478242D01*
X215293303Y-141266010D01*
X215686629Y-140873370D01*
X215899757Y-140360100D01*
X215900242Y-139804339D01*
X215688010Y-139290697D01*
X215295370Y-138897371D01*
X214782100Y-138684243D01*
X214226339Y-138683758D01*
X213712697Y-138895990D01*
X213319371Y-139288630D01*
X213106243Y-139801900D01*
X213105872Y-140226549D01*
X212035419Y-141297001D01*
X192511867Y-141297001D01*
X192531757Y-141249100D01*
X192532242Y-140693339D01*
X192320010Y-140179697D01*
X191927370Y-139786371D01*
X191414100Y-139573243D01*
X190858339Y-139572758D01*
X190344697Y-139784990D01*
X190044163Y-140085000D01*
X184436579Y-140085000D01*
X173969252Y-129617672D01*
X174021441Y-129584090D01*
X174166431Y-129371890D01*
X174217440Y-129120000D01*
X174217440Y-128509018D01*
X176128210Y-130419787D01*
X176128212Y-130419790D01*
X176415327Y-130611633D01*
X176471518Y-130622810D01*
X176754002Y-130679001D01*
X176754007Y-130679000D01*
X187758522Y-130679000D01*
X188056630Y-130977629D01*
X188569900Y-131190757D01*
X189125661Y-131191242D01*
X189277477Y-131128513D01*
X189314990Y-131219303D01*
X189707630Y-131612629D01*
X190220900Y-131825757D01*
X190776661Y-131826242D01*
X191290303Y-131614010D01*
X191683629Y-131221370D01*
X191896757Y-130708100D01*
X191897128Y-130283452D01*
X192210789Y-129969790D01*
X192210792Y-129969788D01*
X192345996Y-129767440D01*
X192402636Y-129682672D01*
X192470003Y-129343998D01*
X192470002Y-129343993D01*
X192470002Y-128316582D01*
X195335208Y-131181787D01*
X195335210Y-131181790D01*
X195622325Y-131373633D01*
X195678516Y-131384810D01*
X195961000Y-131441001D01*
X195961005Y-131441000D01*
X213793522Y-131441000D01*
X214091630Y-131739629D01*
X214604900Y-131952757D01*
X215160661Y-131953242D01*
X215674303Y-131741010D01*
X216067629Y-131348370D01*
X216070830Y-131340661D01*
X221360758Y-131340661D01*
X221572990Y-131854303D01*
X221965630Y-132247629D01*
X222478900Y-132460757D01*
X223034661Y-132461242D01*
X223548303Y-132249010D01*
X223941629Y-131856370D01*
X224154757Y-131343100D01*
X224155242Y-130787339D01*
X223943010Y-130273697D01*
X223643000Y-129973163D01*
X223643000Y-125142210D01*
X224145787Y-124639422D01*
X224145790Y-124639420D01*
X224337633Y-124352305D01*
X224358379Y-124248010D01*
X224401812Y-124029660D01*
X224703629Y-123728370D01*
X224916757Y-123215100D01*
X224916918Y-123030000D01*
X232283769Y-123030000D01*
X232407465Y-123651861D01*
X232759720Y-124179049D01*
X233286908Y-124531304D01*
X233908769Y-124655000D01*
X235991231Y-124655000D01*
X236613092Y-124531304D01*
X237140280Y-124179049D01*
X237492535Y-123651861D01*
X237616231Y-123030000D01*
X237492535Y-122408139D01*
X237140280Y-121880951D01*
X236613092Y-121528696D01*
X235991231Y-121405000D01*
X233908769Y-121405000D01*
X233286908Y-121528696D01*
X232759720Y-121880951D01*
X232407465Y-122408139D01*
X232283769Y-123030000D01*
X224916918Y-123030000D01*
X224917242Y-122659339D01*
X224705010Y-122145697D01*
X224312370Y-121752371D01*
X223799100Y-121539243D01*
X223243339Y-121538758D01*
X222729697Y-121750990D01*
X222336371Y-122143630D01*
X222123243Y-122656900D01*
X222122758Y-123212661D01*
X222334990Y-123726303D01*
X222445272Y-123836778D01*
X222132210Y-124149840D01*
X221940367Y-124436955D01*
X221940367Y-124436956D01*
X221872999Y-124775630D01*
X221873000Y-124775635D01*
X221873000Y-129973522D01*
X221574371Y-130271630D01*
X221361243Y-130784900D01*
X221360758Y-131340661D01*
X216070830Y-131340661D01*
X216280757Y-130835100D01*
X216281242Y-130279339D01*
X216069010Y-129765697D01*
X215676370Y-129372371D01*
X215163100Y-129159243D01*
X214607339Y-129158758D01*
X214093697Y-129370990D01*
X213793163Y-129671000D01*
X196327579Y-129671000D01*
X193170013Y-126513433D01*
X193170013Y-125879661D01*
X194817758Y-125879661D01*
X195029990Y-126393303D01*
X195422630Y-126786629D01*
X195935900Y-126999757D01*
X196491661Y-127000242D01*
X197005303Y-126788010D01*
X197398629Y-126395370D01*
X197611757Y-125882100D01*
X197612128Y-125457452D01*
X199121579Y-123948000D01*
X214047522Y-123948000D01*
X214345630Y-124246629D01*
X214858900Y-124459757D01*
X215414661Y-124460242D01*
X215928303Y-124248010D01*
X216321629Y-123855370D01*
X216534757Y-123342100D01*
X216535242Y-122786339D01*
X216420683Y-122509082D01*
X216664298Y-122509082D01*
X216876530Y-123022724D01*
X217269170Y-123416050D01*
X217782440Y-123629178D01*
X218338201Y-123629663D01*
X218851843Y-123417431D01*
X219245169Y-123024791D01*
X219458297Y-122511521D01*
X219458782Y-121955760D01*
X219246550Y-121442118D01*
X218853910Y-121048792D01*
X218340640Y-120835664D01*
X217784879Y-120835179D01*
X217271237Y-121047411D01*
X216877911Y-121440051D01*
X216664783Y-121953321D01*
X216664298Y-122509082D01*
X216420683Y-122509082D01*
X216323010Y-122272697D01*
X215930370Y-121879371D01*
X215417100Y-121666243D01*
X214861339Y-121665758D01*
X214347697Y-121877990D01*
X214047163Y-122178000D01*
X198755000Y-122178000D01*
X198416325Y-122245367D01*
X198129210Y-122437210D01*
X198129208Y-122437213D01*
X196360294Y-124206126D01*
X195938339Y-124205758D01*
X195424697Y-124417990D01*
X195031371Y-124810630D01*
X194818243Y-125323900D01*
X194817758Y-125879661D01*
X193170013Y-125879661D01*
X193170013Y-118030000D01*
X232283769Y-118030000D01*
X232407465Y-118651861D01*
X232759720Y-119179049D01*
X233286908Y-119531304D01*
X233908769Y-119655000D01*
X235991231Y-119655000D01*
X236613092Y-119531304D01*
X237140280Y-119179049D01*
X237492535Y-118651861D01*
X237616231Y-118030000D01*
X237492535Y-117408139D01*
X237140280Y-116880951D01*
X236613092Y-116528696D01*
X235991231Y-116405000D01*
X233908769Y-116405000D01*
X233286908Y-116528696D01*
X232759720Y-116880951D01*
X232407465Y-117408139D01*
X232283769Y-118030000D01*
X193170013Y-118030000D01*
X193170013Y-116349284D01*
X193102646Y-116010609D01*
X192910803Y-115723494D01*
X192910800Y-115723492D01*
X191761835Y-114574526D01*
X192133639Y-114203370D01*
X192346767Y-113690100D01*
X192347252Y-113134339D01*
X192135020Y-112620697D01*
X191742380Y-112227371D01*
X191291140Y-112040000D01*
X232322560Y-112040000D01*
X232322560Y-114020000D01*
X232366838Y-114255317D01*
X232505910Y-114471441D01*
X232718110Y-114616431D01*
X232970000Y-114667440D01*
X236930000Y-114667440D01*
X237165317Y-114623162D01*
X237381441Y-114484090D01*
X237526431Y-114271890D01*
X237577440Y-114020000D01*
X237577440Y-112040000D01*
X237533162Y-111804683D01*
X237394090Y-111588559D01*
X237181890Y-111443569D01*
X236930000Y-111392560D01*
X232970000Y-111392560D01*
X232734683Y-111436838D01*
X232518559Y-111575910D01*
X232373569Y-111788110D01*
X232322560Y-112040000D01*
X191291140Y-112040000D01*
X191229110Y-112014243D01*
X190804461Y-112013872D01*
X186114800Y-107324210D01*
X186090007Y-107307644D01*
X185827685Y-107132367D01*
X185771494Y-107121190D01*
X185489010Y-107064999D01*
X185489005Y-107065000D01*
X173909432Y-107065000D01*
X173799147Y-106899946D01*
X173469974Y-106680000D01*
X173799147Y-106460054D01*
X174121054Y-105978285D01*
X174234093Y-105410000D01*
X174190539Y-105191040D01*
X174356579Y-105025000D01*
X189409522Y-105025000D01*
X189707630Y-105323629D01*
X190220900Y-105536757D01*
X190776661Y-105537242D01*
X191290303Y-105325010D01*
X191683629Y-104932370D01*
X191896757Y-104419100D01*
X191897242Y-103863339D01*
X191800002Y-103628000D01*
X213920522Y-103628000D01*
X214218630Y-103926629D01*
X214731900Y-104139757D01*
X215287661Y-104140242D01*
X215801303Y-103928010D01*
X216194629Y-103535370D01*
X216407757Y-103022100D01*
X216408242Y-102466339D01*
X216196010Y-101952697D01*
X215803370Y-101559371D01*
X215290100Y-101346243D01*
X214734339Y-101345758D01*
X214220697Y-101557990D01*
X213920163Y-101858000D01*
X172847005Y-101858000D01*
X172847000Y-101857999D01*
X172508326Y-101925366D01*
X172413054Y-101989025D01*
X172221210Y-102117210D01*
X172221208Y-102117213D01*
X170379520Y-103958900D01*
X170209093Y-103925000D01*
X170150907Y-103925000D01*
X169582622Y-104038039D01*
X169100853Y-104359946D01*
X168778946Y-104841715D01*
X168665907Y-105410000D01*
X168778946Y-105978285D01*
X169100853Y-106460054D01*
X169108255Y-106465000D01*
X168552998Y-106465000D01*
X165810000Y-106465000D01*
X165810000Y-98980000D01*
X168783769Y-98980000D01*
X168907465Y-99601861D01*
X169259720Y-100129049D01*
X169786908Y-100481304D01*
X170408769Y-100605000D01*
X172491231Y-100605000D01*
X173113092Y-100481304D01*
X173640280Y-100129049D01*
X173992535Y-99601861D01*
X174116231Y-98980000D01*
X173992535Y-98358139D01*
X173640280Y-97830951D01*
X173113092Y-97478696D01*
X172491231Y-97355000D01*
X170408769Y-97355000D01*
X169786908Y-97478696D01*
X169259720Y-97830951D01*
X168907465Y-98358139D01*
X168783769Y-98980000D01*
X165810000Y-98980000D01*
X165810000Y-94633750D01*
X168835000Y-94633750D01*
X168835000Y-95096309D01*
X168931673Y-95329698D01*
X169110301Y-95508327D01*
X169343690Y-95605000D01*
X170301250Y-95605000D01*
X170460000Y-95446250D01*
X170460000Y-94475000D01*
X172440000Y-94475000D01*
X172440000Y-95446250D01*
X172598750Y-95605000D01*
X173556310Y-95605000D01*
X173789699Y-95508327D01*
X173968327Y-95329698D01*
X174065000Y-95096309D01*
X174065000Y-94633750D01*
X173906250Y-94475000D01*
X172440000Y-94475000D01*
X170460000Y-94475000D01*
X168993750Y-94475000D01*
X168835000Y-94633750D01*
X165810000Y-94633750D01*
X165810000Y-92863691D01*
X168835000Y-92863691D01*
X168835000Y-93326250D01*
X168993750Y-93485000D01*
X170460000Y-93485000D01*
X170460000Y-92513750D01*
X172440000Y-92513750D01*
X172440000Y-93485000D01*
X173906250Y-93485000D01*
X174065000Y-93326250D01*
X174065000Y-92863691D01*
X173968327Y-92630302D01*
X173789699Y-92451673D01*
X173556310Y-92355000D01*
X172598750Y-92355000D01*
X172440000Y-92513750D01*
X170460000Y-92513750D01*
X170301250Y-92355000D01*
X169343690Y-92355000D01*
X169110301Y-92451673D01*
X168931673Y-92630302D01*
X168835000Y-92863691D01*
X165810000Y-92863691D01*
X165810000Y-92150000D01*
X182125902Y-92150000D01*
X182122287Y-92150719D01*
X182122287Y-92150719D01*
G37*
X182122287Y-92150719D02*
X181479929Y-92579929D01*
X181050719Y-93222287D01*
X180900000Y-93980000D01*
X181050719Y-94737713D01*
X181479929Y-95380071D01*
X182122287Y-95809281D01*
X182880000Y-95960000D01*
X183637713Y-95809281D01*
X184280071Y-95380071D01*
X184709281Y-94737713D01*
X184860000Y-93980000D01*
X184709281Y-93222287D01*
X184280071Y-92579929D01*
X183637713Y-92150719D01*
X183634098Y-92150000D01*
X240545902Y-92150000D01*
X240542287Y-92150719D01*
X239899929Y-92579929D01*
X239470719Y-93222287D01*
X239320000Y-93980000D01*
X239470719Y-94737713D01*
X239899929Y-95380071D01*
X240542287Y-95809281D01*
X241300000Y-95960000D01*
X242057713Y-95809281D01*
X242700071Y-95380071D01*
X243129281Y-94737713D01*
X243130000Y-94734098D01*
X243130000Y-146565902D01*
X243129281Y-146562287D01*
X242700071Y-145919929D01*
X242057713Y-145490719D01*
X241300000Y-145340000D01*
X240542287Y-145490719D01*
X239899929Y-145919929D01*
X239470719Y-146562287D01*
X239320000Y-147320000D01*
X239470719Y-148077713D01*
X239899929Y-148720071D01*
X240542287Y-149149281D01*
X240545902Y-149150000D01*
X183634098Y-149150000D01*
X183637713Y-149149281D01*
X184280071Y-148720071D01*
X184709281Y-148077713D01*
X184860000Y-147320000D01*
X184709281Y-146562287D01*
X184280071Y-145919929D01*
X183637713Y-145490719D01*
X182880000Y-145340000D01*
X182122287Y-145490719D01*
X181479929Y-145919929D01*
X181050719Y-146562287D01*
X180900000Y-147320000D01*
X181050719Y-148077713D01*
X181479929Y-148720071D01*
X182122287Y-149149281D01*
X182125902Y-149150000D01*
X165810000Y-149150000D01*
X165810000Y-144163750D01*
X167565000Y-144163750D01*
X167565000Y-144626309D01*
X167661673Y-144859698D01*
X167840301Y-145038327D01*
X168073690Y-145135000D01*
X169031250Y-145135000D01*
X169190000Y-144976250D01*
X169190000Y-144005000D01*
X171170000Y-144005000D01*
X171170000Y-144976250D01*
X171328750Y-145135000D01*
X172286310Y-145135000D01*
X172519699Y-145038327D01*
X172698327Y-144859698D01*
X172795000Y-144626309D01*
X172795000Y-144163750D01*
X172636250Y-144005000D01*
X171170000Y-144005000D01*
X169190000Y-144005000D01*
X167723750Y-144005000D01*
X167565000Y-144163750D01*
X165810000Y-144163750D01*
X165810000Y-142393691D01*
X167565000Y-142393691D01*
X167565000Y-142856250D01*
X167723750Y-143015000D01*
X169190000Y-143015000D01*
X169190000Y-142043750D01*
X171170000Y-142043750D01*
X171170000Y-143015000D01*
X172636250Y-143015000D01*
X172795000Y-142856250D01*
X172795000Y-142393691D01*
X172698327Y-142160302D01*
X172519699Y-141981673D01*
X172286310Y-141885000D01*
X171328750Y-141885000D01*
X171170000Y-142043750D01*
X169190000Y-142043750D01*
X169031250Y-141885000D01*
X168073690Y-141885000D01*
X167840301Y-141981673D01*
X167661673Y-142160302D01*
X167565000Y-142393691D01*
X165810000Y-142393691D01*
X165810000Y-138510000D01*
X167513769Y-138510000D01*
X167637465Y-139131861D01*
X167989720Y-139659049D01*
X168516908Y-140011304D01*
X169138769Y-140135000D01*
X171221231Y-140135000D01*
X171843092Y-140011304D01*
X172370280Y-139659049D01*
X172722535Y-139131861D01*
X172846231Y-138510000D01*
X172722535Y-137888139D01*
X172370280Y-137360951D01*
X171843092Y-137008696D01*
X171221231Y-136885000D01*
X169138769Y-136885000D01*
X168516908Y-137008696D01*
X167989720Y-137360951D01*
X167637465Y-137888139D01*
X167513769Y-138510000D01*
X165810000Y-138510000D01*
X165810000Y-106465000D01*
X168552998Y-106465000D01*
X168552998Y-107100000D01*
X168979840Y-107100000D01*
X168841119Y-107307644D01*
X168923690Y-107525000D01*
X169755000Y-107525000D01*
X169755000Y-107100000D01*
X170605000Y-107100000D01*
X170605000Y-107525000D01*
X171030000Y-107525000D01*
X171030000Y-108375000D01*
X170605000Y-108375000D01*
X170605000Y-108800000D01*
X169755000Y-108800000D01*
X169755000Y-108375000D01*
X168923690Y-108375000D01*
X168841119Y-108592356D01*
X168979840Y-108800000D01*
X168552998Y-108800000D01*
X168552998Y-109435000D01*
X169108255Y-109435000D01*
X169100853Y-109439946D01*
X168778946Y-109921715D01*
X168665907Y-110490000D01*
X168778946Y-111058285D01*
X169100853Y-111540054D01*
X169430026Y-111760000D01*
X169100853Y-111979946D01*
X168778946Y-112461715D01*
X168665907Y-113030000D01*
X168778946Y-113598285D01*
X169100853Y-114080054D01*
X169430026Y-114300000D01*
X169100853Y-114519946D01*
X168778946Y-115001715D01*
X168665907Y-115570000D01*
X168778946Y-116138285D01*
X169100853Y-116620054D01*
X169430026Y-116840000D01*
X169100853Y-117059946D01*
X168778946Y-117541715D01*
X168665907Y-118110000D01*
X168778946Y-118678285D01*
X169100853Y-119160054D01*
X169430026Y-119380000D01*
X169100853Y-119599946D01*
X168778946Y-120081715D01*
X168665907Y-120650000D01*
X168778946Y-121218285D01*
X169100853Y-121700054D01*
X169430026Y-121920000D01*
X169100853Y-122139946D01*
X168778946Y-122621715D01*
X168665907Y-123190000D01*
X168778946Y-123758285D01*
X169100853Y-124240054D01*
X169430026Y-124460000D01*
X169100853Y-124679946D01*
X168778946Y-125161715D01*
X168665907Y-125730000D01*
X168778946Y-126298285D01*
X169100853Y-126780054D01*
X169430026Y-127000000D01*
X169100853Y-127219946D01*
X168778946Y-127701715D01*
X168665907Y-128270000D01*
X168778946Y-128838285D01*
X169100853Y-129320054D01*
X169582622Y-129641961D01*
X170150907Y-129755000D01*
X170209093Y-129755000D01*
X170379520Y-129721100D01*
X183466209Y-142807788D01*
X183466211Y-142807791D01*
X183753326Y-142999634D01*
X184092001Y-143067001D01*
X212401994Y-143067001D01*
X212401999Y-143067002D01*
X212684483Y-143010811D01*
X212740674Y-142999634D01*
X213027789Y-142807791D01*
X213027790Y-142807790D01*
X214357705Y-141477874D01*
X214779661Y-141478242D01*
X215293303Y-141266010D01*
X215686629Y-140873370D01*
X215899757Y-140360100D01*
X215900242Y-139804339D01*
X215688010Y-139290697D01*
X215295370Y-138897371D01*
X214782100Y-138684243D01*
X214226339Y-138683758D01*
X213712697Y-138895990D01*
X213319371Y-139288630D01*
X213106243Y-139801900D01*
X213105872Y-140226549D01*
X212035419Y-141297001D01*
X192511867Y-141297001D01*
X192531757Y-141249100D01*
X192532242Y-140693339D01*
X192320010Y-140179697D01*
X191927370Y-139786371D01*
X191414100Y-139573243D01*
X190858339Y-139572758D01*
X190344697Y-139784990D01*
X190044163Y-140085000D01*
X184436579Y-140085000D01*
X173969252Y-129617672D01*
X174021441Y-129584090D01*
X174166431Y-129371890D01*
X174217440Y-129120000D01*
X174217440Y-128509018D01*
X176128210Y-130419787D01*
X176128212Y-130419790D01*
X176415327Y-130611633D01*
X176471518Y-130622810D01*
X176754002Y-130679001D01*
X176754007Y-130679000D01*
X187758522Y-130679000D01*
X188056630Y-130977629D01*
X188569900Y-131190757D01*
X189125661Y-131191242D01*
X189277477Y-131128513D01*
X189314990Y-131219303D01*
X189707630Y-131612629D01*
X190220900Y-131825757D01*
X190776661Y-131826242D01*
X191290303Y-131614010D01*
X191683629Y-131221370D01*
X191896757Y-130708100D01*
X191897128Y-130283452D01*
X192210789Y-129969790D01*
X192210792Y-129969788D01*
X192345996Y-129767440D01*
X192402636Y-129682672D01*
X192470003Y-129343998D01*
X192470002Y-129343993D01*
X192470002Y-128316582D01*
X195335208Y-131181787D01*
X195335210Y-131181790D01*
X195622325Y-131373633D01*
X195678516Y-131384810D01*
X195961000Y-131441001D01*
X195961005Y-131441000D01*
X213793522Y-131441000D01*
X214091630Y-131739629D01*
X214604900Y-131952757D01*
X215160661Y-131953242D01*
X215674303Y-131741010D01*
X216067629Y-131348370D01*
X216070830Y-131340661D01*
X221360758Y-131340661D01*
X221572990Y-131854303D01*
X221965630Y-132247629D01*
X222478900Y-132460757D01*
X223034661Y-132461242D01*
X223548303Y-132249010D01*
X223941629Y-131856370D01*
X224154757Y-131343100D01*
X224155242Y-130787339D01*
X223943010Y-130273697D01*
X223643000Y-129973163D01*
X223643000Y-125142210D01*
X224145787Y-124639422D01*
X224145790Y-124639420D01*
X224337633Y-124352305D01*
X224358379Y-124248010D01*
X224401812Y-124029660D01*
X224703629Y-123728370D01*
X224916757Y-123215100D01*
X224916918Y-123030000D01*
X232283769Y-123030000D01*
X232407465Y-123651861D01*
X232759720Y-124179049D01*
X233286908Y-124531304D01*
X233908769Y-124655000D01*
X235991231Y-124655000D01*
X236613092Y-124531304D01*
X237140280Y-124179049D01*
X237492535Y-123651861D01*
X237616231Y-123030000D01*
X237492535Y-122408139D01*
X237140280Y-121880951D01*
X236613092Y-121528696D01*
X235991231Y-121405000D01*
X233908769Y-121405000D01*
X233286908Y-121528696D01*
X232759720Y-121880951D01*
X232407465Y-122408139D01*
X232283769Y-123030000D01*
X224916918Y-123030000D01*
X224917242Y-122659339D01*
X224705010Y-122145697D01*
X224312370Y-121752371D01*
X223799100Y-121539243D01*
X223243339Y-121538758D01*
X222729697Y-121750990D01*
X222336371Y-122143630D01*
X222123243Y-122656900D01*
X222122758Y-123212661D01*
X222334990Y-123726303D01*
X222445272Y-123836778D01*
X222132210Y-124149840D01*
X221940367Y-124436955D01*
X221940367Y-124436956D01*
X221872999Y-124775630D01*
X221873000Y-124775635D01*
X221873000Y-129973522D01*
X221574371Y-130271630D01*
X221361243Y-130784900D01*
X221360758Y-131340661D01*
X216070830Y-131340661D01*
X216280757Y-130835100D01*
X216281242Y-130279339D01*
X216069010Y-129765697D01*
X215676370Y-129372371D01*
X215163100Y-129159243D01*
X214607339Y-129158758D01*
X214093697Y-129370990D01*
X213793163Y-129671000D01*
X196327579Y-129671000D01*
X193170013Y-126513433D01*
X193170013Y-125879661D01*
X194817758Y-125879661D01*
X195029990Y-126393303D01*
X195422630Y-126786629D01*
X195935900Y-126999757D01*
X196491661Y-127000242D01*
X197005303Y-126788010D01*
X197398629Y-126395370D01*
X197611757Y-125882100D01*
X197612128Y-125457452D01*
X199121579Y-123948000D01*
X214047522Y-123948000D01*
X214345630Y-124246629D01*
X214858900Y-124459757D01*
X215414661Y-124460242D01*
X215928303Y-124248010D01*
X216321629Y-123855370D01*
X216534757Y-123342100D01*
X216535242Y-122786339D01*
X216420683Y-122509082D01*
X216664298Y-122509082D01*
X216876530Y-123022724D01*
X217269170Y-123416050D01*
X217782440Y-123629178D01*
X218338201Y-123629663D01*
X218851843Y-123417431D01*
X219245169Y-123024791D01*
X219458297Y-122511521D01*
X219458782Y-121955760D01*
X219246550Y-121442118D01*
X218853910Y-121048792D01*
X218340640Y-120835664D01*
X217784879Y-120835179D01*
X217271237Y-121047411D01*
X216877911Y-121440051D01*
X216664783Y-121953321D01*
X216664298Y-122509082D01*
X216420683Y-122509082D01*
X216323010Y-122272697D01*
X215930370Y-121879371D01*
X215417100Y-121666243D01*
X214861339Y-121665758D01*
X214347697Y-121877990D01*
X214047163Y-122178000D01*
X198755000Y-122178000D01*
X198416325Y-122245367D01*
X198129210Y-122437210D01*
X198129208Y-122437213D01*
X196360294Y-124206126D01*
X195938339Y-124205758D01*
X195424697Y-124417990D01*
X195031371Y-124810630D01*
X194818243Y-125323900D01*
X194817758Y-125879661D01*
X193170013Y-125879661D01*
X193170013Y-118030000D01*
X232283769Y-118030000D01*
X232407465Y-118651861D01*
X232759720Y-119179049D01*
X233286908Y-119531304D01*
X233908769Y-119655000D01*
X235991231Y-119655000D01*
X236613092Y-119531304D01*
X237140280Y-119179049D01*
X237492535Y-118651861D01*
X237616231Y-118030000D01*
X237492535Y-117408139D01*
X237140280Y-116880951D01*
X236613092Y-116528696D01*
X235991231Y-116405000D01*
X233908769Y-116405000D01*
X233286908Y-116528696D01*
X232759720Y-116880951D01*
X232407465Y-117408139D01*
X232283769Y-118030000D01*
X193170013Y-118030000D01*
X193170013Y-116349284D01*
X193102646Y-116010609D01*
X192910803Y-115723494D01*
X192910800Y-115723492D01*
X191761835Y-114574526D01*
X192133639Y-114203370D01*
X192346767Y-113690100D01*
X192347252Y-113134339D01*
X192135020Y-112620697D01*
X191742380Y-112227371D01*
X191291140Y-112040000D01*
X232322560Y-112040000D01*
X232322560Y-114020000D01*
X232366838Y-114255317D01*
X232505910Y-114471441D01*
X232718110Y-114616431D01*
X232970000Y-114667440D01*
X236930000Y-114667440D01*
X237165317Y-114623162D01*
X237381441Y-114484090D01*
X237526431Y-114271890D01*
X237577440Y-114020000D01*
X237577440Y-112040000D01*
X237533162Y-111804683D01*
X237394090Y-111588559D01*
X237181890Y-111443569D01*
X236930000Y-111392560D01*
X232970000Y-111392560D01*
X232734683Y-111436838D01*
X232518559Y-111575910D01*
X232373569Y-111788110D01*
X232322560Y-112040000D01*
X191291140Y-112040000D01*
X191229110Y-112014243D01*
X190804461Y-112013872D01*
X186114800Y-107324210D01*
X186090007Y-107307644D01*
X185827685Y-107132367D01*
X185771494Y-107121190D01*
X185489010Y-107064999D01*
X185489005Y-107065000D01*
X173909432Y-107065000D01*
X173799147Y-106899946D01*
X173469974Y-106680000D01*
X173799147Y-106460054D01*
X174121054Y-105978285D01*
X174234093Y-105410000D01*
X174190539Y-105191040D01*
X174356579Y-105025000D01*
X189409522Y-105025000D01*
X189707630Y-105323629D01*
X190220900Y-105536757D01*
X190776661Y-105537242D01*
X191290303Y-105325010D01*
X191683629Y-104932370D01*
X191896757Y-104419100D01*
X191897242Y-103863339D01*
X191800002Y-103628000D01*
X213920522Y-103628000D01*
X214218630Y-103926629D01*
X214731900Y-104139757D01*
X215287661Y-104140242D01*
X215801303Y-103928010D01*
X216194629Y-103535370D01*
X216407757Y-103022100D01*
X216408242Y-102466339D01*
X216196010Y-101952697D01*
X215803370Y-101559371D01*
X215290100Y-101346243D01*
X214734339Y-101345758D01*
X214220697Y-101557990D01*
X213920163Y-101858000D01*
X172847005Y-101858000D01*
X172847000Y-101857999D01*
X172508326Y-101925366D01*
X172413054Y-101989025D01*
X172221210Y-102117210D01*
X172221208Y-102117213D01*
X170379520Y-103958900D01*
X170209093Y-103925000D01*
X170150907Y-103925000D01*
X169582622Y-104038039D01*
X169100853Y-104359946D01*
X168778946Y-104841715D01*
X168665907Y-105410000D01*
X168778946Y-105978285D01*
X169100853Y-106460054D01*
X169108255Y-106465000D01*
X168552998Y-106465000D01*
X165810000Y-106465000D01*
X165810000Y-98980000D01*
X168783769Y-98980000D01*
X168907465Y-99601861D01*
X169259720Y-100129049D01*
X169786908Y-100481304D01*
X170408769Y-100605000D01*
X172491231Y-100605000D01*
X173113092Y-100481304D01*
X173640280Y-100129049D01*
X173992535Y-99601861D01*
X174116231Y-98980000D01*
X173992535Y-98358139D01*
X173640280Y-97830951D01*
X173113092Y-97478696D01*
X172491231Y-97355000D01*
X170408769Y-97355000D01*
X169786908Y-97478696D01*
X169259720Y-97830951D01*
X168907465Y-98358139D01*
X168783769Y-98980000D01*
X165810000Y-98980000D01*
X165810000Y-94633750D01*
X168835000Y-94633750D01*
X168835000Y-95096309D01*
X168931673Y-95329698D01*
X169110301Y-95508327D01*
X169343690Y-95605000D01*
X170301250Y-95605000D01*
X170460000Y-95446250D01*
X170460000Y-94475000D01*
X172440000Y-94475000D01*
X172440000Y-95446250D01*
X172598750Y-95605000D01*
X173556310Y-95605000D01*
X173789699Y-95508327D01*
X173968327Y-95329698D01*
X174065000Y-95096309D01*
X174065000Y-94633750D01*
X173906250Y-94475000D01*
X172440000Y-94475000D01*
X170460000Y-94475000D01*
X168993750Y-94475000D01*
X168835000Y-94633750D01*
X165810000Y-94633750D01*
X165810000Y-92863691D01*
X168835000Y-92863691D01*
X168835000Y-93326250D01*
X168993750Y-93485000D01*
X170460000Y-93485000D01*
X170460000Y-92513750D01*
X172440000Y-92513750D01*
X172440000Y-93485000D01*
X173906250Y-93485000D01*
X174065000Y-93326250D01*
X174065000Y-92863691D01*
X173968327Y-92630302D01*
X173789699Y-92451673D01*
X173556310Y-92355000D01*
X172598750Y-92355000D01*
X172440000Y-92513750D01*
X170460000Y-92513750D01*
X170301250Y-92355000D01*
X169343690Y-92355000D01*
X169110301Y-92451673D01*
X168931673Y-92630302D01*
X168835000Y-92863691D01*
X165810000Y-92863691D01*
X165810000Y-92150000D01*
X182125902Y-92150000D01*
X182122287Y-92150719D01*
M02*
